# xmcd
#
# Track frame offsets:
#	150
#	23515
#	42480
#	70675
#	107055
#	123545
#	139575
#	161385
#	184425
#	208940
#	227782
#
# Disc length: 3443
#
# Revision: 3
# Processed by: cddbd v1.5.1PL0 Copyright (c) Steve Scherf et al.
# Submitted via: EasyCD 2.21 - (C) 1996 Greg Leichner
# Normalized: r1:TSWAP
#
DISCID=990d710b
DTITLE=Various Artist - GRP Digital Sampler Vol. 1
DYEAR=1900
DGENRE=
TTITLE0=Dave Grusin - Power Wave
TTITLE1=Dave Grusin w/ Phoebe Snow - Thankful N' Thoughtful
TTITLE2=Dave Grusin - Mountain Dance
TTITLE3=Dave and Don Gusin, Lee Ritenour - Count Down
TTITLE4=The Glenn Miller Orchestra - In the Mood
TTITLE5=Dave Valentine - Encendido (On Fire)
TTITLE6=Dave Valentine - Monkey Buttons
TTITLE7=Special EFX - Sambuca Nights
TTITLE8=Special EFX - Forever Hold Your Peace
TTITLE9=Kevin Eubanks - The Sting
TTITLE10=Gerry Mulligan - Sun on Stairs
EXTD=
EXTT0=
EXTT1=
EXTT2=
EXTT3=
EXTT4=
EXTT5=
EXTT6=
EXTT7=
EXTT8=
EXTT9=
EXTT10=
PLAYORDER=
